<svg width="274" height="223" viewBox="0 0 274 223" xmlns="http://www.w3.org/2000/svg"><g fill="none" fill-rule="evenodd"><path d="M0 197.8c4.388.52 8.853.784 13.38.784 26.278 0 50.463-8.967 69.66-24.01-24.545-.453-45.26-16.67-52.396-38.953 3.424.66 6.938 1.01 10.552 1.01 5.116 0 10.07-.685 14.778-1.967-25.66-5.15-44.993-27.82-44.993-54.997 0-.236 0-.47.008-.705 7.563 4.2 16.21 6.725 25.406 7.016C21.34 75.913 11.44 58.746 11.44 39.286c0-10.28 2.766-19.913 7.594-28.197 27.664 33.93 68.993 56.26 115.61 58.6-.957-4.106-1.454-8.387-1.454-12.78 0-30.978 25.114-56.09 56.09-56.09 16.133 0 30.71 6.81 40.942 17.712 12.776-2.516 24.78-7.184 35.617-13.61-4.19 13.096-13.08 24.088-24.665 31.03 11.346-1.356 22.156-4.37 32.215-8.832-7.52 11.25-17.03 21.128-27.987 29.036.108 2.405.162 4.824.162 7.256C245.565 137.532 189.148 223 85.98 223c-31.675 0-61.158-9.285-85.98-25.2z" fill="#B4B9C2"/></g></svg>
